# xmcd CD database file generated by LOLA_Freedb v0.9beta0
# 
# Track frame offsets:
#      150
#      22161
#      35393
#      56758
#      74506
#      90467
#      116031
#      138944
# 
# Disc length: 2305 seconds
# 
# Revision: 0 
# Processed by: cddbd v1.5.2PL0 Copyright (c) Steve Scherf et al.
# Submitted via: LOLA_Freedb v0.9beta0
# 
DISCID=6f08ff08
DTITLE=Kool and The Gang - Spirit Of The Boogie
DYEAR=1975
DGENRE=
TTITLE0=Spirit Of The Boogie
TTITLE1=Ride The Rhythm
TTITLE2=Jungle Jazz
TTITLE3=Cosmic Energy
TTITLE4=Ancestral Ceremony
TTITLE5=Mother Earth
TTITLE6=Winter Sadness
TTITLE7=Caribbean Festival
EXTD=
EXTT0=
EXTT1=
EXTT2=
EXTT3=
EXTT4=
EXTT5=
EXTT6=
EXTT7=
PLAYORDER=
